<svg width="43" height="50" viewBox="0 0 43 50" fill="none" xmlns="http://www.w3.org/2000/svg">
<path d="M35.1292 26.4222C35.1068 22.3255 36.9599 19.2334 40.7105 16.9562C38.6119 13.9534 35.4417 12.3013 31.2557 11.9776C27.2929 11.6651 22.9618 14.2883 21.3767 14.2883C19.7022 14.2883 15.8623 12.0893 12.8483 12.0893C6.61951 12.1897 0 17.0567 0 26.958C0 29.8827 0.535812 32.9078 1.60744 36.0222C3.03627 40.1189 8.19346 50.1654 13.5739 49.9979C16.3869 49.931 18.3739 47.9998 22.0353 47.9998C25.585 47.9998 27.4269 49.9979 30.5636 49.9979C35.9887 49.9198 40.6547 40.7887 42.0166 36.6808C34.7385 33.2538 35.1292 26.6343 35.1292 26.4222V26.4222ZM28.811 8.09299C31.8585 4.47626 31.5794 1.18325 31.4901 0C28.7999 0.156278 25.6855 1.83069 23.9106 3.8958C21.9571 6.10602 20.8074 8.84089 21.0529 11.9218C23.9664 12.1451 26.6231 10.6493 28.811 8.09299V8.09299Z" fill="white"/>
</svg>
